<?xml version="1.0" encoding="UTF-8"?>
<svg xmlns="http://www.w3.org/2000/svg" version="1.1" xmlns:xlink="http://www.w3.org/1999/xlink" viewBox="0 0 273 272">
  <defs>
    <style>
      .cls-1, .cls-2, .cls-3, .cls-4, .cls-5, .cls-6, .cls-7, .cls-8, .cls-9, .cls-10 {
        fill: none;
      }

      .cls-1, .cls-10 {
        stroke-width: 8px;
      }

      .cls-1, .cls-11 {
        stroke: #3ca7e6;
      }

      .cls-2 {
        stroke: url(#linear-gradient-4);
        stroke-miterlimit: 10;
        stroke-width: 12px;
      }

      .cls-4 {
        stroke: url(#linear-gradient-2);
      }

      .cls-4, .cls-6 {
        stroke-width: 16px;
      }

      .cls-4, .cls-6, .cls-9 {
        stroke-linecap: square;
      }

      .cls-5 {
        stroke-width: 5px;
      }

      .cls-5, .cls-8 {
        stroke: #fff;
      }

      .cls-6 {
        stroke: url(#linear-gradient-3);
      }

      .cls-7 {
        stroke: url(#linear-gradient);
      }

      .cls-7, .cls-8, .cls-9 {
        stroke-width: 15px;
      }

      .cls-12 {
        fill: url(#linear-gradient-5);
      }

      .cls-9 {
        stroke: #578be3;
      }

      .cls-10, .cls-13 {
        stroke: #34b0e7;
      }

      .cls-11 {
        fill: #3ca7e6;
      }

      .cls-13 {
        fill: #34b0e7;
      }
    </style>
    <linearGradient id="linear-gradient" x1="137.7" y1="259" x2="137.7" y2="423" gradientTransform="translate(0 -226)" gradientUnits="userSpaceOnUse">
      <stop offset="0" stop-color="#00e6ee"/>
      <stop offset="1" stop-color="#5f83e2"/>
    </linearGradient>
    <linearGradient id="linear-gradient-2" x1="161.7" y1="273" x2="161.7" y2="381" gradientTransform="translate(0 -226)" gradientUnits="userSpaceOnUse">
      <stop offset="0" stop-color="#00e6ee"/>
      <stop offset="1" stop-color="#5f83e2"/>
    </linearGradient>
    <linearGradient id="linear-gradient-3" x1="113.7" y1="301" x2="113.7" y2="409" gradientTransform="translate(0 -226)" gradientUnits="userSpaceOnUse">
      <stop offset="0" stop-color="#00e6ee"/>
      <stop offset="1" stop-color="#5f83e2"/>
    </linearGradient>
    <linearGradient id="linear-gradient-4" x1="128.9" y1="200.3" x2="143.8" y2="140.7" gradientTransform="translate(0 274) scale(1 -1)" gradientUnits="userSpaceOnUse">
      <stop offset="0" stop-color="#00e6ee"/>
      <stop offset="1" stop-color="#5f83e2"/>
    </linearGradient>
    <linearGradient id="linear-gradient-5" x1="44" y1="458" x2="229" y2="458" gradientTransform="translate(0 -226)" gradientUnits="userSpaceOnUse">
      <stop offset="0" stop-color="#05e1ed"/>
      <stop offset="1" stop-color="#5c86e2"/>
    </linearGradient>
  </defs>
  <!-- Generator: Adobe Illustrator 28.7.3, SVG Export Plug-In . SVG Version: 1.2.0 Build 164)  -->
  <g>
    <g id="Layer_1">
      <g id="Layer_1-2" data-name="Layer_1">
        <rect class="cls-3" width="273" height="272"/>
        <circle class="cls-7" cx="137.7" cy="115" r="74.5"/>
        <path class="cls-3" d="M98.7,163v39"/>
        <path class="cls-3" d="M176.7,39l-.5,31.6"/>
        <path class="cls-3" d="M182.1,156.6l28.8,26.4"/>
        <path class="cls-4" d="M161.7,47v108"/>
        <path class="cls-6" d="M113.7,75v108"/>
        <path class="cls-9" d="M181.7,176l23,23"/>
        <path class="cls-8" d="M178.7,208l42-2"/>
        <path class="cls-2" d="M257.7,73.3s.3,2.4-5,7.5c-4.8,4.7-12.7,10-23.4,15.6-21.2,11.1-51.9,22.4-87,31.1-35.1,8.7-67.5,13.1-91.4,13.3-12,0-21.5-.9-27.9-2.8-7.1-2-7.9-4.2-7.9-4.2,0,0-.3-2.4,5-7.5,4.8-4.7,12.7-10,23.4-15.6,21.2-11.1,51.9-22.4,87-31.1,35.1-8.7,67.5-13.1,91.4-13.3,12,0,21.5.9,27.9,2.8,7.1,2,7.9,4.2,7.9,4.2Z"/>
        <path class="cls-3" d="M71.7,106.4c0-1.6,1.7-7.7,3-12.4.6-2.2,1.8-4.2,3.2-5.9l16.1-18.5c3.6-4.2,10.5-1.8,10.8,3.7,0,10.9-6,20.9-15.7,25.8-9,4.6-17.4,8.5-17.4,7.3Z"/>
        <rect class="cls-3" x="87.1" y="73.3" width="18.3" height="32.3"/>
        <rect class="cls-3" x="121.7" y="61" width="32" height="35"/>
        <rect class="cls-3" x="169.7" y="60" width="14" height="17"/>
        <circle class="cls-3" cx="183.2" cy="76.5" r="7.5"/>
        <circle class="cls-3" cx="181.2" cy="74.5" r="7.5"/>
        <circle class="cls-3" cx="182.2" cy="75.5" r="7.5"/>
        <ellipse class="cls-3" cx="189.2" cy="77.9" rx="3.5" ry="6" transform="translate(-15.4 79) rotate(-22.7)"/>
        <circle class="cls-3" cx="177.2" cy="77.5" r="7.5"/>
        <ellipse class="cls-3" cx="81.2" cy="93.2" rx="9" ry="6.5" transform="translate(-28.7 149.8) rotate(-76.2)"/>
        <path class="cls-3" d="M100.7,77l18-14"/>
        <path class="cls-3" d="M150.4,157.8l20,11"/>
        <path class="cls-10" d="M65.7,120l17.5-3.5"/>
        <circle class="cls-13" cx="85.2" cy="116.5" r="7"/>
        <path class="cls-1" d="M204.9,135l-17.3,4.5"/>
        <circle class="cls-11" cx="185.6" cy="139.6" r="7"/>
        <path class="cls-12" d="M45.4,243v-21.8h5.9v8.5h7.8v-8.5h5.9v21.8h-5.9v-8.5h-7.8v8.5s-5.9,0-5.9,0ZM72.6,243.3c-1,0-2-.2-2.8-.5s-1.4-.9-1.9-1.6c-.5-.7-.7-1.6-.7-2.7s.2-1.7.5-2.3.7-1.2,1.3-1.6c.5-.4,1.2-.7,1.9-.9.7-.2,1.5-.4,2.4-.4s1.7-.2,2.2-.3c.6-.1,1-.3,1.2-.4.2-.2.4-.4.4-.8h0c0-.5-.2-.8-.5-1s-.7-.3-1.3-.3-1,.1-1.4.4c-.3.2-.6.6-.6,1.1h-5.4c0-1,.4-1.9.9-2.7.6-.8,1.4-1.5,2.5-2s2.4-.8,4.1-.8,2.2.1,3.2.4c.9.3,1.7.6,2.4,1.1.7.5,1.2,1.1,1.5,1.7.3.6.5,1.4.5,2.1v11.2h-5.5v-2.3h0c-.3.6-.7,1.1-1.2,1.5s-1,.7-1.6.8c-.6.2-1.2.3-1.9.3h0ZM74.5,239.5c.4,0,.9,0,1.3-.3.4-.2.7-.5,1-.8.2-.3.4-.8.4-1.3v-1.4c-.2,0-.3.1-.5.2-.2,0-.4.1-.6.2-.2,0-.4,0-.6.1-.2,0-.4,0-.7.1-.5,0-.8.2-1.1.4-.3.2-.5.4-.6.6,0,.2-.2.5-.2.8,0,.5.2.8.5,1s.7.4,1.2.4h-.1ZM93.6,243.3c-1.8,0-3.3-.4-4.6-1.1-1.3-.7-2.2-1.7-2.9-3-.7-1.3-1-2.7-1-4.4s.3-3.1,1-4.4c.7-1.3,1.6-2.3,2.9-3s2.8-1.1,4.6-1.1,3,.3,4.2.9c1.2.6,2.1,1.4,2.7,2.4.6,1.1,1,2.3,1,3.7h-5.5c0-.9-.3-1.5-.7-2-.4-.5-.9-.7-1.6-.7s-1,.2-1.3.4c-.4.3-.7.7-.9,1.3-.2.6-.3,1.3-.3,2.2s0,1.6.3,2.2c.2.6.5,1,.9,1.3s.8.4,1.3.4.8-.1,1.2-.3c.3-.2.6-.5.8-.9.2-.4.3-.9.4-1.4h5.5c0,1.4-.4,2.7-1,3.8s-1.5,1.9-2.7,2.5-2.6.9-4.2.9v.3ZM109.2,239.1v-7h.8l4-5.5h6.6l-6.6,8.6h-1.7s-3.1,3.9-3.1,3.9ZM103.9,243v-21.8h5.9v21.8h-5.9ZM114,243l-3.8-6.5,3.8-4.2,6.6,10.7h-6.7,0ZM130.5,234.9h4.6l1.7,2.1,2.8,3.2,3.7,4.4h-5.2l-2.6-3-1.7-2.5-3.2-4.2h-.1ZM143.2,232.1c0,2.4-.5,4.5-1.4,6.1-.9,1.7-2.2,2.9-3.8,3.8-1.6.9-3.4,1.3-5.4,1.3s-3.8-.4-5.4-1.3c-1.6-.9-2.9-2.1-3.8-3.8s-1.4-3.7-1.4-6.1.5-4.5,1.4-6.1c.9-1.7,2.2-2.9,3.8-3.8,1.6-.9,3.4-1.3,5.4-1.3s3.8.4,5.4,1.3c1.6.9,2.9,2.1,3.8,3.8.9,1.7,1.4,3.7,1.4,6.1ZM137.1,232.1c0-1.3-.2-2.4-.5-3.3-.3-.9-.8-1.6-1.5-2-.7-.5-1.5-.7-2.5-.7s-1.8.2-2.5.7-1.2,1.1-1.5,2-.5,2-.5,3.3.2,2.4.5,3.3c.3.9.9,1.6,1.5,2,.7.5,1.5.7,2.5.7s1.8-.2,2.5-.7,1.2-1.2,1.5-2c.3-.9.5-2,.5-3.3ZM156.6,235.8v-9.2h5.9v16.4h-5.6v-3.1h-.2c-.4,1-1,1.9-1.9,2.4-.9.6-1.9.9-3.2.9s-2.1-.3-3-.8-1.5-1.2-2-2.2c-.5-.9-.7-2-.7-3.2v-10.4h5.9v9.2c0,.8.2,1.4.6,1.9.4.5,1,.7,1.7.7s.9-.1,1.3-.3c.4-.2.6-.5.8-.9s.3-.9.3-1.4h0ZM165.5,243v-16.4h5.9v16.4h-5.9ZM168.4,224.9c-.8,0-1.5-.3-2-.8-.6-.5-.9-1.2-.9-1.9s.3-1.4.9-1.9c.6-.5,1.2-.8,2-.8s1.5.3,2,.8c.6.5.9,1.2.9,1.9s-.3,1.4-.9,1.9c-.6.5-1.2.8-2,.8ZM180.2,233.8v9.2h-5.9v-16.4h5.6v3.1h.2c.4-1,1-1.8,1.9-2.4.9-.6,2-.9,3.2-.9s2.2.3,3,.8c.9.5,1.5,1.2,2,2.2.5.9.7,2,.7,3.2v10.4h-5.9v-9.2c0-.8-.2-1.4-.6-1.9-.4-.5-1-.7-1.7-.7s-.9.1-1.3.3c-.4.2-.6.5-.8.9s-.3.8-.3,1.4h0ZM201.6,243.3c-1.8,0-3.3-.4-4.6-1.1-1.3-.7-2.2-1.7-2.9-3s-1-2.7-1-4.4.3-3.1,1-4.4c.7-1.3,1.6-2.3,2.9-3,1.3-.7,2.8-1.1,4.6-1.1s3.3.4,4.6,1.1c1.3.7,2.2,1.7,2.9,3s1,2.7,1,4.4-.3,3.2-1,4.4c-.7,1.3-1.6,2.3-2.9,3-1.3.7-2.8,1.1-4.6,1.1ZM201.7,239c.5,0,.9-.2,1.3-.5s.6-.8.8-1.4c.2-.6.3-1.4.3-2.2s0-1.6-.3-2.2c-.2-.6-.5-1.1-.8-1.4-.4-.3-.8-.5-1.3-.5s-1,.2-1.4.5-.7.8-.9,1.4c-.2.6-.3,1.3-.3,2.2s0,1.6.3,2.2c.2.6.5,1.1.9,1.4.4.3.8.5,1.4.5ZM217,226.6l2.4,5.1,2.5-5.1h5.8l-4.4,8.2,4.6,8.2h-5.8l-2.8-5.2-2.7,5.2h-5.9l4.6-8.2-4.3-8.2h6Z"/>
        <path class="cls-5" d="M44,222l9-4"/>
        <path class="cls-5" d="M58,246l9-4"/>
        <path class="cls-5" d="M131,252l9-4"/>
        <path class="cls-5" d="M102,223l9-4"/>
      </g>
    </g>
  </g>
</svg>